<mxfile host="app.diagrams.net" modified="2023-04-04T15:01:54.974Z" agent="Mozilla/5.0 (Windows NT 10.0; Win64; x64) AppleWebKit/537.36 (KHTML, like Gecko) Chrome/111.0.0.0 Safari/537.36" etag="SiJClssMWowH2VU0sPKP" version="21.1.4" type="device">
  <diagram name="Page-1" id="13e1069c-82ec-6db2-03f1-153e76fe0fe0">
    <mxGraphModel dx="3453" dy="1903" grid="1" gridSize="10" guides="1" tooltips="1" connect="1" arrows="1" fold="1" page="1" pageScale="1" pageWidth="1100" pageHeight="850" background="none" math="0" shadow="0">
      <root>
        <mxCell id="0" />
        <mxCell id="1" parent="0" />
        <mxCell id="7baba1c4bc27f4b0-2" value="Student" style="shape=umlLifeline;perimeter=lifelinePerimeter;whiteSpace=wrap;html=1;container=1;collapsible=0;recursiveResize=0;outlineConnect=0;rounded=1;shadow=0;comic=0;labelBackgroundColor=none;strokeWidth=1;fontFamily=Verdana;fontSize=12;align=center;" parent="1" vertex="1">
          <mxGeometry x="400" y="80" width="100" height="1480" as="geometry" />
        </mxCell>
        <mxCell id="YPV0gk3LqZf216EFj3yF-9" value="" style="html=1;points=[];perimeter=orthogonalPerimeter;outlineConnect=0;targetShapes=umlLifeline;portConstraint=eastwest;newEdgeStyle={&quot;edgeStyle&quot;:&quot;elbowEdgeStyle&quot;,&quot;elbow&quot;:&quot;vertical&quot;,&quot;curved&quot;:0,&quot;rounded&quot;:0};" vertex="1" parent="7baba1c4bc27f4b0-2">
          <mxGeometry x="45" y="150" width="10" height="150" as="geometry" />
        </mxCell>
        <mxCell id="YPV0gk3LqZf216EFj3yF-35" value="" style="html=1;points=[];perimeter=orthogonalPerimeter;outlineConnect=0;targetShapes=umlLifeline;portConstraint=eastwest;newEdgeStyle={&quot;edgeStyle&quot;:&quot;elbowEdgeStyle&quot;,&quot;elbow&quot;:&quot;vertical&quot;,&quot;curved&quot;:0,&quot;rounded&quot;:0};" vertex="1" parent="7baba1c4bc27f4b0-2">
          <mxGeometry x="45" y="750" width="10" height="330" as="geometry" />
        </mxCell>
        <mxCell id="YPV0gk3LqZf216EFj3yF-39" value="seachBook()" style="html=1;verticalAlign=bottom;endArrow=block;edgeStyle=elbowEdgeStyle;elbow=vertical;curved=0;rounded=0;" edge="1" parent="7baba1c4bc27f4b0-2" target="YPV0gk3LqZf216EFj3yF-38">
          <mxGeometry width="80" relative="1" as="geometry">
            <mxPoint x="60" y="820" as="sourcePoint" />
            <mxPoint x="140" y="820" as="targetPoint" />
            <Array as="points">
              <mxPoint x="60" y="820" />
            </Array>
          </mxGeometry>
        </mxCell>
        <mxCell id="7baba1c4bc27f4b0-3" value="Librarian" style="shape=umlLifeline;perimeter=lifelinePerimeter;whiteSpace=wrap;html=1;container=1;collapsible=0;recursiveResize=0;outlineConnect=0;rounded=1;shadow=0;comic=0;labelBackgroundColor=none;strokeWidth=1;fontFamily=Verdana;fontSize=12;align=center;" parent="1" vertex="1">
          <mxGeometry x="260" y="80" width="100" height="1480" as="geometry" />
        </mxCell>
        <mxCell id="YPV0gk3LqZf216EFj3yF-4" value="" style="html=1;points=[];perimeter=orthogonalPerimeter;outlineConnect=0;targetShapes=umlLifeline;portConstraint=eastwest;newEdgeStyle={&quot;edgeStyle&quot;:&quot;elbowEdgeStyle&quot;,&quot;elbow&quot;:&quot;vertical&quot;,&quot;curved&quot;:0,&quot;rounded&quot;:0};" vertex="1" parent="7baba1c4bc27f4b0-3">
          <mxGeometry x="45" y="100" width="10" height="630" as="geometry" />
        </mxCell>
        <mxCell id="YPV0gk3LqZf216EFj3yF-8" value="newStudentAdded()" style="html=1;verticalAlign=bottom;endArrow=open;dashed=1;endSize=8;edgeStyle=elbowEdgeStyle;elbow=vertical;curved=0;rounded=0;" edge="1" parent="7baba1c4bc27f4b0-3" source="7baba1c4bc27f4b0-2">
          <mxGeometry relative="1" as="geometry">
            <mxPoint x="140" y="190" as="sourcePoint" />
            <mxPoint x="60" y="190" as="targetPoint" />
            <Array as="points" />
          </mxGeometry>
        </mxCell>
        <mxCell id="YPV0gk3LqZf216EFj3yF-21" value="response" style="html=1;verticalAlign=bottom;endArrow=open;dashed=1;endSize=8;edgeStyle=elbowEdgeStyle;elbow=vertical;curved=0;rounded=0;" edge="1" parent="7baba1c4bc27f4b0-3" source="7baba1c4bc27f4b0-6">
          <mxGeometry x="-0.0003" relative="1" as="geometry">
            <mxPoint x="325" y="410.2857142857142" as="sourcePoint" />
            <mxPoint x="55" y="410" as="targetPoint" />
            <mxPoint as="offset" />
          </mxGeometry>
        </mxCell>
        <mxCell id="YPV0gk3LqZf216EFj3yF-24" value="return aBook()" style="html=1;verticalAlign=bottom;endArrow=block;edgeStyle=elbowEdgeStyle;elbow=vertical;curved=0;rounded=0;" edge="1" parent="7baba1c4bc27f4b0-3" target="7baba1c4bc27f4b0-6">
          <mxGeometry width="80" relative="1" as="geometry">
            <mxPoint x="55" y="470.17999999999995" as="sourcePoint" />
            <mxPoint x="325" y="470.2857142857142" as="targetPoint" />
            <Array as="points">
              <mxPoint x="600" y="470" />
            </Array>
          </mxGeometry>
        </mxCell>
        <mxCell id="YPV0gk3LqZf216EFj3yF-25" value="response" style="html=1;verticalAlign=bottom;endArrow=open;dashed=1;endSize=8;edgeStyle=elbowEdgeStyle;elbow=vertical;curved=0;rounded=0;" edge="1" parent="7baba1c4bc27f4b0-3" target="YPV0gk3LqZf216EFj3yF-4">
          <mxGeometry x="0.4194" relative="1" as="geometry">
            <mxPoint x="140" y="520" as="sourcePoint" />
            <mxPoint x="60" y="520" as="targetPoint" />
            <Array as="points">
              <mxPoint x="460" y="520" />
              <mxPoint x="600" y="520" />
            </Array>
            <mxPoint as="offset" />
          </mxGeometry>
        </mxCell>
        <mxCell id="YPV0gk3LqZf216EFj3yF-30" value="bookAdded()" style="html=1;verticalAlign=bottom;endArrow=open;dashed=1;endSize=8;edgeStyle=elbowEdgeStyle;elbow=vertical;curved=0;rounded=0;" edge="1" parent="7baba1c4bc27f4b0-3" source="7baba1c4bc27f4b0-5">
          <mxGeometry relative="1" as="geometry">
            <mxPoint x="140" y="670" as="sourcePoint" />
            <mxPoint x="60" y="670" as="targetPoint" />
            <Array as="points">
              <mxPoint x="60" y="670" />
            </Array>
          </mxGeometry>
        </mxCell>
        <mxCell id="YPV0gk3LqZf216EFj3yF-48" value="logout()" style="html=1;verticalAlign=bottom;endArrow=block;edgeStyle=elbowEdgeStyle;elbow=vertical;curved=0;rounded=0;" edge="1" parent="7baba1c4bc27f4b0-3" target="YPV0gk3LqZf216EFj3yF-49">
          <mxGeometry x="0.302" width="80" relative="1" as="geometry">
            <mxPoint x="30" y="1030" as="sourcePoint" />
            <mxPoint x="110" y="1030" as="targetPoint" />
            <Array as="points">
              <mxPoint x="190" y="1030" />
            </Array>
            <mxPoint as="offset" />
          </mxGeometry>
        </mxCell>
        <mxCell id="7baba1c4bc27f4b0-6" value="IssueBooks" style="shape=umlLifeline;perimeter=lifelinePerimeter;whiteSpace=wrap;html=1;container=1;collapsible=0;recursiveResize=0;outlineConnect=0;rounded=1;shadow=0;comic=0;labelBackgroundColor=none;strokeWidth=1;fontFamily=Verdana;fontSize=12;align=center;" parent="1" vertex="1">
          <mxGeometry x="680" y="80" width="100" height="1470" as="geometry" />
        </mxCell>
        <mxCell id="YPV0gk3LqZf216EFj3yF-26" value="" style="html=1;points=[];perimeter=orthogonalPerimeter;outlineConnect=0;targetShapes=umlLifeline;portConstraint=eastwest;newEdgeStyle={&quot;edgeStyle&quot;:&quot;elbowEdgeStyle&quot;,&quot;elbow&quot;:&quot;vertical&quot;,&quot;curved&quot;:0,&quot;rounded&quot;:0};" vertex="1" parent="7baba1c4bc27f4b0-6">
          <mxGeometry x="45" y="340" width="10" height="200" as="geometry" />
        </mxCell>
        <mxCell id="YPV0gk3LqZf216EFj3yF-41" value="" style="html=1;points=[];perimeter=orthogonalPerimeter;outlineConnect=0;targetShapes=umlLifeline;portConstraint=eastwest;newEdgeStyle={&quot;edgeStyle&quot;:&quot;elbowEdgeStyle&quot;,&quot;elbow&quot;:&quot;vertical&quot;,&quot;curved&quot;:0,&quot;rounded&quot;:0};" vertex="1" parent="7baba1c4bc27f4b0-6">
          <mxGeometry x="45" y="880" width="10" height="140" as="geometry" />
        </mxCell>
        <mxCell id="YPV0gk3LqZf216EFj3yF-46" value="response" style="html=1;verticalAlign=bottom;endArrow=open;dashed=1;endSize=8;edgeStyle=elbowEdgeStyle;elbow=vertical;curved=0;rounded=0;" edge="1" parent="7baba1c4bc27f4b0-6" target="YPV0gk3LqZf216EFj3yF-35">
          <mxGeometry relative="1" as="geometry">
            <mxPoint x="45" y="990" as="sourcePoint" />
            <mxPoint x="-85" y="990" as="targetPoint" />
            <Array as="points">
              <mxPoint x="-5" y="990" />
            </Array>
          </mxGeometry>
        </mxCell>
        <mxCell id="YPV0gk3LqZf216EFj3yF-47" value="response" style="html=1;verticalAlign=bottom;endArrow=open;dashed=1;endSize=8;edgeStyle=elbowEdgeStyle;elbow=vertical;curved=0;rounded=0;" edge="1" parent="7baba1c4bc27f4b0-6" target="YPV0gk3LqZf216EFj3yF-35">
          <mxGeometry relative="1" as="geometry">
            <mxPoint x="45" y="930" as="sourcePoint" />
            <mxPoint x="-230" y="930" as="targetPoint" />
            <Array as="points">
              <mxPoint x="-5" y="930" />
            </Array>
          </mxGeometry>
        </mxCell>
        <mxCell id="YPV0gk3LqZf216EFj3yF-56" value="SearchBookByTitile()" style="html=1;verticalAlign=bottom;endArrow=block;edgeStyle=elbowEdgeStyle;elbow=vertical;curved=0;rounded=0;" edge="1" parent="7baba1c4bc27f4b0-6" target="7baba1c4bc27f4b0-5">
          <mxGeometry x="0.2637" width="80" relative="1" as="geometry">
            <mxPoint x="55" y="1290" as="sourcePoint" />
            <mxPoint x="135" y="1290" as="targetPoint" />
            <Array as="points">
              <mxPoint x="180" y="1290" />
            </Array>
            <mxPoint x="1" as="offset" />
          </mxGeometry>
        </mxCell>
        <mxCell id="7baba1c4bc27f4b0-7" value="Books_Sell" style="shape=umlLifeline;perimeter=lifelinePerimeter;whiteSpace=wrap;html=1;container=1;collapsible=0;recursiveResize=0;outlineConnect=0;rounded=1;shadow=0;comic=0;labelBackgroundColor=none;strokeWidth=1;fontFamily=Verdana;fontSize=12;align=center;" parent="1" vertex="1">
          <mxGeometry x="960" y="80" width="100" height="1470" as="geometry" />
        </mxCell>
        <mxCell id="7baba1c4bc27f4b0-8" value="Login" style="shape=umlLifeline;perimeter=lifelinePerimeter;whiteSpace=wrap;html=1;container=1;collapsible=0;recursiveResize=0;outlineConnect=0;rounded=1;shadow=0;comic=0;labelBackgroundColor=none;strokeWidth=1;fontFamily=Verdana;fontSize=12;align=center;" parent="1" vertex="1">
          <mxGeometry x="100" y="80" width="100" height="1470" as="geometry" />
        </mxCell>
        <mxCell id="7baba1c4bc27f4b0-9" value="" style="html=1;points=[];perimeter=orthogonalPerimeter;rounded=0;shadow=0;comic=0;labelBackgroundColor=none;strokeWidth=1;fontFamily=Verdana;fontSize=12;align=center;" parent="7baba1c4bc27f4b0-8" vertex="1">
          <mxGeometry x="45" y="100" width="10" height="40" as="geometry" />
        </mxCell>
        <mxCell id="YPV0gk3LqZf216EFj3yF-31" value="" style="html=1;points=[];perimeter=orthogonalPerimeter;outlineConnect=0;targetShapes=umlLifeline;portConstraint=eastwest;newEdgeStyle={&quot;edgeStyle&quot;:&quot;elbowEdgeStyle&quot;,&quot;elbow&quot;:&quot;vertical&quot;,&quot;curved&quot;:0,&quot;rounded&quot;:0};" vertex="1" parent="7baba1c4bc27f4b0-8">
          <mxGeometry x="45" y="670" width="10" height="50" as="geometry" />
        </mxCell>
        <mxCell id="YPV0gk3LqZf216EFj3yF-34" value="" style="html=1;points=[];perimeter=orthogonalPerimeter;outlineConnect=0;targetShapes=umlLifeline;portConstraint=eastwest;newEdgeStyle={&quot;edgeStyle&quot;:&quot;elbowEdgeStyle&quot;,&quot;elbow&quot;:&quot;vertical&quot;,&quot;curved&quot;:0,&quot;rounded&quot;:0};" vertex="1" parent="7baba1c4bc27f4b0-8">
          <mxGeometry x="45" y="760" width="10" height="80" as="geometry" />
        </mxCell>
        <mxCell id="YPV0gk3LqZf216EFj3yF-36" value="loginAsStudent()" style="html=1;verticalAlign=bottom;endArrow=block;edgeStyle=elbowEdgeStyle;elbow=vertical;curved=0;rounded=0;" edge="1" parent="7baba1c4bc27f4b0-8" target="YPV0gk3LqZf216EFj3yF-35">
          <mxGeometry width="80" relative="1" as="geometry">
            <mxPoint x="50" y="760" as="sourcePoint" />
            <mxPoint x="130" y="760" as="targetPoint" />
          </mxGeometry>
        </mxCell>
        <mxCell id="YPV0gk3LqZf216EFj3yF-37" value="succesfullLogin()" style="html=1;verticalAlign=bottom;endArrow=open;dashed=1;endSize=8;edgeStyle=elbowEdgeStyle;elbow=vertical;curved=0;rounded=0;" edge="1" parent="7baba1c4bc27f4b0-8" target="YPV0gk3LqZf216EFj3yF-34">
          <mxGeometry x="-0.7526" relative="1" as="geometry">
            <mxPoint x="140" y="790" as="sourcePoint" />
            <mxPoint x="60" y="790" as="targetPoint" />
            <Array as="points">
              <mxPoint x="340" y="790" />
            </Array>
            <mxPoint as="offset" />
          </mxGeometry>
        </mxCell>
        <mxCell id="YPV0gk3LqZf216EFj3yF-49" value="" style="html=1;points=[];perimeter=orthogonalPerimeter;outlineConnect=0;targetShapes=umlLifeline;portConstraint=eastwest;newEdgeStyle={&quot;edgeStyle&quot;:&quot;elbowEdgeStyle&quot;,&quot;elbow&quot;:&quot;vertical&quot;,&quot;curved&quot;:0,&quot;rounded&quot;:0};" vertex="1" parent="7baba1c4bc27f4b0-8">
          <mxGeometry x="45" y="990" width="10" height="80" as="geometry" />
        </mxCell>
        <mxCell id="YPV0gk3LqZf216EFj3yF-50" value="" style="html=1;points=[];perimeter=orthogonalPerimeter;outlineConnect=0;targetShapes=umlLifeline;portConstraint=eastwest;newEdgeStyle={&quot;edgeStyle&quot;:&quot;elbowEdgeStyle&quot;,&quot;elbow&quot;:&quot;vertical&quot;,&quot;curved&quot;:0,&quot;rounded&quot;:0};" vertex="1" parent="7baba1c4bc27f4b0-8">
          <mxGeometry x="45" y="1128" width="10" height="92" as="geometry" />
        </mxCell>
        <mxCell id="YPV0gk3LqZf216EFj3yF-51" value="LoginasSupplier()" style="html=1;verticalAlign=bottom;endArrow=block;edgeStyle=elbowEdgeStyle;elbow=vertical;curved=0;rounded=0;" edge="1" parent="7baba1c4bc27f4b0-8" target="YPV0gk3LqZf216EFj3yF-52">
          <mxGeometry width="80" relative="1" as="geometry">
            <mxPoint x="60" y="1150" as="sourcePoint" />
            <mxPoint x="140" y="1150" as="targetPoint" />
          </mxGeometry>
        </mxCell>
        <mxCell id="YPV0gk3LqZf216EFj3yF-60" value="" style="html=1;points=[];perimeter=orthogonalPerimeter;outlineConnect=0;targetShapes=umlLifeline;portConstraint=eastwest;newEdgeStyle={&quot;edgeStyle&quot;:&quot;elbowEdgeStyle&quot;,&quot;elbow&quot;:&quot;vertical&quot;,&quot;curved&quot;:0,&quot;rounded&quot;:0};" vertex="1" parent="7baba1c4bc27f4b0-8">
          <mxGeometry x="45" y="1360" width="10" height="80" as="geometry" />
        </mxCell>
        <mxCell id="YPV0gk3LqZf216EFj3yF-2" value="" style="endArrow=classic;html=1;rounded=0;" edge="1" parent="1" source="7baba1c4bc27f4b0-8" target="YPV0gk3LqZf216EFj3yF-4">
          <mxGeometry width="50" height="50" relative="1" as="geometry">
            <mxPoint x="210" y="230" as="sourcePoint" />
            <mxPoint x="440" y="180" as="targetPoint" />
            <Array as="points">
              <mxPoint x="220" y="180" />
            </Array>
          </mxGeometry>
        </mxCell>
        <mxCell id="YPV0gk3LqZf216EFj3yF-3" value="login_as_Librarian()" style="text;html=1;align=center;verticalAlign=middle;resizable=0;points=[];autosize=1;strokeColor=none;fillColor=none;" vertex="1" parent="1">
          <mxGeometry x="145" y="155" width="130" height="30" as="geometry" />
        </mxCell>
        <mxCell id="YPV0gk3LqZf216EFj3yF-5" value="successful_login()" style="html=1;verticalAlign=bottom;endArrow=open;dashed=1;endSize=8;edgeStyle=elbowEdgeStyle;elbow=vertical;curved=0;rounded=0;entryX=0.827;entryY=0.74;entryDx=0;entryDy=0;entryPerimeter=0;" edge="1" parent="1" source="YPV0gk3LqZf216EFj3yF-4" target="7baba1c4bc27f4b0-9">
          <mxGeometry relative="1" as="geometry">
            <mxPoint x="380" y="210" as="sourcePoint" />
            <mxPoint x="160" y="210" as="targetPoint" />
            <Array as="points">
              <mxPoint x="310" y="210" />
              <mxPoint x="220" y="200" />
            </Array>
          </mxGeometry>
        </mxCell>
        <mxCell id="YPV0gk3LqZf216EFj3yF-7" value="addNewStudent()" style="text;html=1;align=center;verticalAlign=middle;resizable=0;points=[];autosize=1;strokeColor=none;fillColor=none;" vertex="1" parent="1">
          <mxGeometry x="315" y="210" width="120" height="30" as="geometry" />
        </mxCell>
        <mxCell id="YPV0gk3LqZf216EFj3yF-11" value="" style="html=1;verticalAlign=bottom;endArrow=block;edgeStyle=elbowEdgeStyle;elbow=vertical;curved=0;rounded=0;exitX=-0.004;exitY=1.002;exitDx=0;exitDy=0;exitPerimeter=0;" edge="1" parent="1" source="YPV0gk3LqZf216EFj3yF-7" target="7baba1c4bc27f4b0-2">
          <mxGeometry width="80" relative="1" as="geometry">
            <mxPoint x="330" y="240" as="sourcePoint" />
            <mxPoint x="410" y="240" as="targetPoint" />
          </mxGeometry>
        </mxCell>
        <mxCell id="YPV0gk3LqZf216EFj3yF-12" value="searchbyStudentID()" style="html=1;verticalAlign=bottom;endArrow=block;edgeStyle=elbowEdgeStyle;elbow=vertical;curved=0;rounded=0;" edge="1" parent="1" source="YPV0gk3LqZf216EFj3yF-4" target="YPV0gk3LqZf216EFj3yF-9">
          <mxGeometry width="80" relative="1" as="geometry">
            <mxPoint x="320" y="330" as="sourcePoint" />
            <mxPoint x="440" y="330" as="targetPoint" />
            <Array as="points">
              <mxPoint x="360" y="330" />
              <mxPoint x="390" y="330" />
              <mxPoint x="420" y="330" />
            </Array>
          </mxGeometry>
        </mxCell>
        <mxCell id="YPV0gk3LqZf216EFj3yF-16" value="studentdata()" style="html=1;verticalAlign=bottom;endArrow=open;dashed=1;endSize=8;edgeStyle=elbowEdgeStyle;elbow=vertical;curved=0;rounded=0;" edge="1" parent="1" source="YPV0gk3LqZf216EFj3yF-9" target="YPV0gk3LqZf216EFj3yF-4">
          <mxGeometry relative="1" as="geometry">
            <mxPoint x="440" y="370" as="sourcePoint" />
            <mxPoint x="320" y="370" as="targetPoint" />
            <Array as="points">
              <mxPoint x="400" y="370" />
            </Array>
          </mxGeometry>
        </mxCell>
        <mxCell id="7baba1c4bc27f4b0-5" value="Books" style="shape=umlLifeline;perimeter=lifelinePerimeter;whiteSpace=wrap;html=1;container=1;collapsible=0;recursiveResize=0;outlineConnect=0;rounded=1;shadow=0;comic=0;labelBackgroundColor=none;strokeWidth=1;fontFamily=Verdana;fontSize=12;align=center;" parent="1" vertex="1">
          <mxGeometry x="540" y="80" width="100" height="1470" as="geometry" />
        </mxCell>
        <mxCell id="YPV0gk3LqZf216EFj3yF-27" value="" style="html=1;points=[];perimeter=orthogonalPerimeter;outlineConnect=0;targetShapes=umlLifeline;portConstraint=eastwest;newEdgeStyle={&quot;edgeStyle&quot;:&quot;elbowEdgeStyle&quot;,&quot;elbow&quot;:&quot;vertical&quot;,&quot;curved&quot;:0,&quot;rounded&quot;:0};" vertex="1" parent="7baba1c4bc27f4b0-5">
          <mxGeometry x="45" y="560" width="10" height="150" as="geometry" />
        </mxCell>
        <mxCell id="YPV0gk3LqZf216EFj3yF-38" value="" style="html=1;points=[];perimeter=orthogonalPerimeter;outlineConnect=0;targetShapes=umlLifeline;portConstraint=eastwest;newEdgeStyle={&quot;edgeStyle&quot;:&quot;elbowEdgeStyle&quot;,&quot;elbow&quot;:&quot;vertical&quot;,&quot;curved&quot;:0,&quot;rounded&quot;:0};" vertex="1" parent="7baba1c4bc27f4b0-5">
          <mxGeometry x="45" y="750" width="10" height="120" as="geometry" />
        </mxCell>
        <mxCell id="YPV0gk3LqZf216EFj3yF-42" value="issuebook()" style="html=1;verticalAlign=bottom;endArrow=block;edgeStyle=elbowEdgeStyle;elbow=vertical;curved=0;rounded=0;" edge="1" parent="7baba1c4bc27f4b0-5" target="7baba1c4bc27f4b0-6">
          <mxGeometry x="0.3504" width="80" relative="1" as="geometry">
            <mxPoint x="60" y="900" as="sourcePoint" />
            <mxPoint x="140" y="900" as="targetPoint" />
            <Array as="points">
              <mxPoint x="-90" y="900" />
            </Array>
            <mxPoint as="offset" />
          </mxGeometry>
        </mxCell>
        <mxCell id="YPV0gk3LqZf216EFj3yF-44" value="returnbook()" style="html=1;verticalAlign=bottom;endArrow=block;edgeStyle=elbowEdgeStyle;elbow=vertical;curved=0;rounded=0;" edge="1" parent="7baba1c4bc27f4b0-5" target="7baba1c4bc27f4b0-6">
          <mxGeometry x="0.3016" width="80" relative="1" as="geometry">
            <mxPoint x="50" y="960" as="sourcePoint" />
            <mxPoint x="130" y="960" as="targetPoint" />
            <Array as="points">
              <mxPoint x="-90" y="960" />
            </Array>
            <mxPoint as="offset" />
          </mxGeometry>
        </mxCell>
        <mxCell id="YPV0gk3LqZf216EFj3yF-57" value="" style="html=1;points=[];perimeter=orthogonalPerimeter;outlineConnect=0;targetShapes=umlLifeline;portConstraint=eastwest;newEdgeStyle={&quot;edgeStyle&quot;:&quot;elbowEdgeStyle&quot;,&quot;elbow&quot;:&quot;vertical&quot;,&quot;curved&quot;:0,&quot;rounded&quot;:0};" vertex="1" parent="7baba1c4bc27f4b0-5">
          <mxGeometry x="46" y="1250" width="10" height="110" as="geometry" />
        </mxCell>
        <mxCell id="YPV0gk3LqZf216EFj3yF-19" value="issue Book" style="html=1;verticalAlign=bottom;endArrow=block;edgeStyle=elbowEdgeStyle;elbow=vertical;curved=0;rounded=0;" edge="1" parent="1" source="YPV0gk3LqZf216EFj3yF-4" target="7baba1c4bc27f4b0-6">
          <mxGeometry width="80" relative="1" as="geometry">
            <mxPoint x="340" y="440" as="sourcePoint" />
            <mxPoint x="585" y="440" as="targetPoint" />
            <Array as="points">
              <mxPoint x="450" y="440" />
              <mxPoint x="320" y="440" />
            </Array>
          </mxGeometry>
        </mxCell>
        <mxCell id="YPV0gk3LqZf216EFj3yF-29" value="addNewBook()" style="html=1;verticalAlign=bottom;endArrow=block;edgeStyle=elbowEdgeStyle;elbow=vertical;curved=0;rounded=0;" edge="1" parent="1" target="7baba1c4bc27f4b0-5">
          <mxGeometry x="0.1782" width="80" relative="1" as="geometry">
            <mxPoint x="390" y="690" as="sourcePoint" />
            <mxPoint x="470" y="690" as="targetPoint" />
            <Array as="points">
              <mxPoint x="320" y="690" />
            </Array>
            <mxPoint as="offset" />
          </mxGeometry>
        </mxCell>
        <mxCell id="YPV0gk3LqZf216EFj3yF-32" value="Logout()" style="html=1;verticalAlign=bottom;endArrow=block;edgeStyle=elbowEdgeStyle;elbow=vertical;curved=0;rounded=0;" edge="1" parent="1" target="YPV0gk3LqZf216EFj3yF-31">
          <mxGeometry x="0.3338" width="80" relative="1" as="geometry">
            <mxPoint x="210" y="780" as="sourcePoint" />
            <mxPoint x="150" y="780" as="targetPoint" />
            <Array as="points">
              <mxPoint x="310" y="780" />
            </Array>
            <mxPoint as="offset" />
          </mxGeometry>
        </mxCell>
        <mxCell id="YPV0gk3LqZf216EFj3yF-40" value="response_data()" style="html=1;verticalAlign=bottom;endArrow=open;dashed=1;endSize=8;edgeStyle=elbowEdgeStyle;elbow=vertical;curved=0;rounded=0;" edge="1" parent="1" source="7baba1c4bc27f4b0-5" target="YPV0gk3LqZf216EFj3yF-35">
          <mxGeometry relative="1" as="geometry">
            <mxPoint x="540" y="940" as="sourcePoint" />
            <mxPoint x="460" y="940" as="targetPoint" />
            <Array as="points">
              <mxPoint x="520" y="940" />
              <mxPoint x="540" y="960" />
            </Array>
          </mxGeometry>
        </mxCell>
        <mxCell id="7baba1c4bc27f4b0-4" value="Supplier" style="shape=umlLifeline;perimeter=lifelinePerimeter;whiteSpace=wrap;html=1;container=1;collapsible=0;recursiveResize=0;outlineConnect=0;rounded=1;shadow=0;comic=0;labelBackgroundColor=none;strokeWidth=1;fontFamily=Verdana;fontSize=12;align=center;" parent="1" vertex="1">
          <mxGeometry x="820" y="80" width="100" height="1470" as="geometry" />
        </mxCell>
        <mxCell id="YPV0gk3LqZf216EFj3yF-52" value="" style="html=1;points=[];perimeter=orthogonalPerimeter;outlineConnect=0;targetShapes=umlLifeline;portConstraint=eastwest;newEdgeStyle={&quot;edgeStyle&quot;:&quot;elbowEdgeStyle&quot;,&quot;elbow&quot;:&quot;vertical&quot;,&quot;curved&quot;:0,&quot;rounded&quot;:0};" vertex="1" parent="7baba1c4bc27f4b0-4">
          <mxGeometry x="45" y="1090" width="10" height="360" as="geometry" />
        </mxCell>
        <mxCell id="YPV0gk3LqZf216EFj3yF-54" value="addNewBookToSell()" style="html=1;verticalAlign=bottom;endArrow=block;edgeStyle=elbowEdgeStyle;elbow=vertical;curved=0;rounded=0;" edge="1" parent="7baba1c4bc27f4b0-4" target="7baba1c4bc27f4b0-7">
          <mxGeometry width="80" relative="1" as="geometry">
            <mxPoint x="60" y="1220" as="sourcePoint" />
            <mxPoint x="140" y="1220" as="targetPoint" />
          </mxGeometry>
        </mxCell>
        <mxCell id="YPV0gk3LqZf216EFj3yF-53" value="successfullogin()" style="html=1;verticalAlign=bottom;endArrow=open;dashed=1;endSize=8;edgeStyle=elbowEdgeStyle;elbow=vertical;curved=0;rounded=0;" edge="1" parent="1" source="7baba1c4bc27f4b0-4" target="YPV0gk3LqZf216EFj3yF-50">
          <mxGeometry relative="1" as="geometry">
            <mxPoint x="490" y="1280" as="sourcePoint" />
            <mxPoint x="410" y="1280" as="targetPoint" />
            <Array as="points">
              <mxPoint x="470" y="1280" />
            </Array>
          </mxGeometry>
        </mxCell>
        <mxCell id="YPV0gk3LqZf216EFj3yF-55" value="response" style="html=1;verticalAlign=bottom;endArrow=open;dashed=1;endSize=8;edgeStyle=elbowEdgeStyle;elbow=vertical;curved=0;rounded=0;" edge="1" parent="1" source="7baba1c4bc27f4b0-7" target="7baba1c4bc27f4b0-4">
          <mxGeometry relative="1" as="geometry">
            <mxPoint x="980" y="1360" as="sourcePoint" />
            <mxPoint x="900" y="1360" as="targetPoint" />
            <Array as="points">
              <mxPoint x="940" y="1330" />
              <mxPoint x="1010" y="1360" />
            </Array>
          </mxGeometry>
        </mxCell>
        <mxCell id="YPV0gk3LqZf216EFj3yF-58" value="responsedata" style="html=1;verticalAlign=bottom;endArrow=open;dashed=1;endSize=8;edgeStyle=elbowEdgeStyle;elbow=vertical;curved=0;rounded=0;" edge="1" parent="1" source="7baba1c4bc27f4b0-4">
          <mxGeometry relative="1" as="geometry">
            <mxPoint x="666" y="1420.24" as="sourcePoint" />
            <mxPoint x="586" y="1420.24" as="targetPoint" />
          </mxGeometry>
        </mxCell>
        <mxCell id="YPV0gk3LqZf216EFj3yF-59" value="logout()" style="html=1;verticalAlign=bottom;endArrow=block;edgeStyle=elbowEdgeStyle;elbow=vertical;curved=0;rounded=0;" edge="1" parent="1" source="7baba1c4bc27f4b0-4" target="7baba1c4bc27f4b0-8">
          <mxGeometry width="80" relative="1" as="geometry">
            <mxPoint x="470" y="1470.24" as="sourcePoint" />
            <mxPoint x="555" y="1470" as="targetPoint" />
            <Array as="points">
              <mxPoint x="440" y="1480" />
              <mxPoint x="860" y="1470" />
            </Array>
          </mxGeometry>
        </mxCell>
      </root>
    </mxGraphModel>
  </diagram>
</mxfile>
